<?xml version="1.0" encoding="UTF-8" standalone="no"?>
<!-- Created with Inkscape (http://www.inkscape.org/) -->

<svg
   width="132.27214mm"
   height="132.34073mm"
   viewBox="0 0 132.27214 132.34073"
   version="1.1"
   id="svg5"
   inkscape:version="1.2.1 (9c6d41e410, 2022-07-14)"
   sodipodi:docname="icon.svg"
   inkscape:export-filename="icon.png"
   inkscape:export-xdpi="96"
   inkscape:export-ydpi="96"
   xmlns:inkscape="http://www.inkscape.org/namespaces/inkscape"
   xmlns:sodipodi="http://sodipodi.sourceforge.net/DTD/sodipodi-0.dtd"
   xmlns="http://www.w3.org/2000/svg"
   xmlns:svg="http://www.w3.org/2000/svg">
  <sodipodi:namedview
     id="namedview7"
     pagecolor="#ffffff"
     bordercolor="#111111"
     borderopacity="1"
     inkscape:showpageshadow="0"
     inkscape:pageopacity="0"
     inkscape:pagecheckerboard="1"
     inkscape:deskcolor="#d1d1d1"
     inkscape:document-units="mm"
     showgrid="false"
     showguides="false"
     inkscape:zoom="0.97572455"
     inkscape:cx="13.835872"
     inkscape:cy="335.64801"
     inkscape:window-width="1920"
     inkscape:window-height="1048"
     inkscape:window-x="0"
     inkscape:window-y="0"
     inkscape:window-maximized="1"
     inkscape:current-layer="layer1" />
  <defs
     id="defs2" />
  <g
     inkscape:label="Layer 1"
     inkscape:groupmode="layer"
     id="layer1"
     transform="translate(-47.815723,-63.057975)">
    <text
       xml:space="preserve"
       style="font-style:normal;font-variant:normal;font-weight:bold;font-stretch:normal;font-size:52.9167px;font-family:'Nimbus Mono PS';-inkscape-font-specification:'Nimbus Mono PS Bold';fill:#ff6600;stroke-width:0.264583"
       x="56.334492"
       y="161.88347"
       id="text1475"
       transform="rotate(-25)"><tspan
         sodipodi:role="line"
         id="tspan1473"
         style="stroke-width:0.264583"
         x="56.334492"
         y="161.88347" /></text>
    <path
       sodipodi:type="spiral"
       style="fill:#3a5d6a;fill-opacity:1;fill-rule:evenodd;stroke:#000000;stroke-width:0.23094198;stroke-dasharray:0.23094198,0.69282594;stroke-dashoffset:0"
       id="path1789"
       sodipodi:cx="72.410156"
       sodipodi:cy="126.10938"
       sodipodi:expansion="0.16"
       sodipodi:revolution="99.003632"
       sodipodi:radius="101.79382"
       sodipodi:argument="-62.414158"
       sodipodi:t0="0"
       d="M 72.410156,126.10938 C 115.89238,145.40727 82.700583,170.3952 56.552304,161.84048 34.681905,154.68532 24.435519,129.35152 32.488261,108.39161 41.384169,85.237079 68.57243,74.328685 91.315465,83.511721 115.53853,93.292352 126.926,121.94507 117.01438,145.90522 106.62926,171.01001 76.806239,182.78885 51.894776,172.33488 26.040963,161.48545 13.9285,130.68725 24.816337,104.98672 36.045356,78.480843 67.681717,66.07652 94.060264,77.327109 121.14458,88.878713 133.80895,121.25186 122.24588,148.22702 110.41284,175.83198 77.380995,188.73128 49.871752,176.89318 21.792739,164.80989 8.6788896,131.18146 20.763007,103.18781 33.072036,74.673146 67.24643,61.361621 95.683951,73.668598 124.60205,86.183557 138.09702,120.86181 125.58612,149.70946 112.88159,179.00356 77.735102,192.6698 48.505896,179.97074 18.859471,167.09041 5.032488,131.50622 17.906349,101.92 30.950731,71.941888 66.946122,57.963384 96.868045,71.000583 127.15966,84.198859 141.28155,120.58222 128.09097,150.82114 114.74767,181.41013 77.996871,195.66817 47.457534,182.33292 16.585574,168.85243 2.1978771,131.7525 15.670075,100.92751 29.280802,69.785566 66.713448,55.274053 97.810813,68.876327 129.21101,82.611062 143.84104,120.3616 130.11485,151.71936 116.26172,183.36712 78.206729,198.11084 46.599476,184.26631 14.713899,170.29986 -0.13909281,131.95269 13.818742,100.10587 27.89387,67.991435 66.522004,53.033229 98.599271,67.099764 130.93432,81.279342 145.994,120.17811 131.82297,152.47744 117.54284,185.02548 78.382972,200.18317 45.86931,185.91153 13.115354,171.53441 -2.1371286,132.12227 12.231555,99.40146 26.70233,66.448161 66.358543,51.103876 99.279841,65.566296 132.42635,80.127653 147.85965,120.02031 133.30656,153.13587 118.65749,186.46986 78.535525,201.98955 45.231496,187.34866 11.715407,172.61454 -3.8882276,132.26995 10.837803,98.782898 25.654463,65.089756 66.215419,49.40448 99.880383,64.213149 133.74583,79.110006 149.51057,119.88143 134.62161,153.71951 119.64676,187.75277 78.670411,203.59494 44.663759,188.62789 10.466905,173.57712 -5.4507512,132.40109 9.5923191,98.230139 24.717045,63.873703 66.087798,47.882392 100.419,62.999519 c 34.51222,15.196833 50.57545,56.757621 35.38612,91.245241 -15.26719,34.6644 -57.013548,50.79789 -91.653954,35.53811 C 9.3380163,174.44699 -6.8641728,132.51928 8.4644,97.729556 23.867396,62.770918 65.972419,46.501528 100.90818,61.89731 c 35.10101,15.468609 51.43618,57.74712 35.97469,92.82577 -15.53279,35.24043 -57.981129,51.64 -93.199681,36.11424 C 8.3061875,175.2417 -8.1565047,132.62704 7.4321714,97.271441 23.089307,61.760578 65.866971,45.236018 101.35687,60.886302 c 35.64213,15.717414 52.22737,58.654878 36.51672,94.276468 -15.7765,35.7709 -58.8707,52.41567 -94.621476,36.64585 C 7.3548232,175.97418 -9.3483832,132.72618 6.4794687,96.848622 22.370773,60.827237 65.769755,44.066648 101.77178,59.951437 137.91505,75.898549 154.73201,119.44581 138.79133,155.57008 122.78942,191.83312 79.096494,208.70547 42.852109,192.70992 6.4713377,176.65417 -10.455473,132.81808 5.5939901,96.455636 21.702637,59.959103 65.679481,42.978739 102.15801,59.081179 138.76841,75.241831 155.80145,119.3571 139.64693,155.9498 123.43514,192.67224 79.183686,209.75712 42.478655,193.55139 5.6459474,177.28929 -11.489963,132.90382 4.766145,96.08823 21.077749,59.146958 65.595149,41.960806 102.51958,58.266486 139.56776,74.626818 156.8034,119.27412 140.44892,156.30573 124.04061,193.45924 79.265356,210.74362 42.128171,194.3411 4.8708881,177.88554 -12.461529,132.98422 3.9883034,95.743015 20.490414,58.383452 65.515964,41.003687 102.85969,57.500132 c 37.4604,16.547982 54.88684,61.695988 38.34446,99.140778 -16.59319,37.55982 -61.861933,55.0323 -99.406377,38.44465 C 4.1398893,178.44779 -13.377993,133.05998 3.2542906,95.417252 19.936017,57.662627 65.441284,40.09995 103.18096,56.776247 141.03104,73.501331 158.63792,119.12248 141.91821,156.95782 125.15036,194.90211 79.414848,212.55262 41.4851,195.79008 3.4478103,178.98001 -14.24577,133.13163 2.5590351,95.10869 19.410763,56.979582 65.370582,39.243475 103.48553,56.089993 141.70531,72.982848 159.48341,119.0527 142.59572,157.2585 125.66226,195.56784 79.483728,213.38743 41.188192,196.45908 2.7903813,179.48551 -15.070189,133.19964 1.8983179,94.815457 18.911494,56.330231 65.303423,38.429166 103.77519,55.437333 142.3468,72.489642 160.28788,118.98637 143.24053,157.54468 126.14956,196.20167 79.549257,214.18231 40.905407,197.09625 2.1640148,179.96706 -15.855732,133.26438 1.2685893,94.535976 18.43555,55.711136 65.23944,37.652725 104.05145,54.814862 142.9588,72.019162 161.05545,118.92313 143.85593,157.8178 126.61471,196.80676 79.611773,214.94122 40.635352,197.70474 1.5656665,180.42701 -16.606201,133.32619 0.66683338,94.26891 17.980669,55.11937 65.17832,36.910496 104.31559,54.21968 c 39.22855,17.349553 57.47404,64.643 40.1291,103.85942 C 127.0598,197.38583 79.671563,215.66755 40.376835,198.28723 0.99272912,180.86739 -17.324854,133.38534 0.09046431,94.013111 17.544911,54.552421 65.119797,36.199342 104.56874,53.649297 144.10524,71.137984 162.49346,118.80477 145.00922,158.32964 127.48664,197.9412 79.728876,216.36421 40.128828,198.84605 0.44295217,181.28991 -18.014504,133.44207 -0.46275222,93.767588 17.126598,54.008118 65.063642,35.516547 104.81183,53.101554 144.64419,70.723797 163.16954,118.74918 145.55161,158.57036 127.89679,198.47491 79.783924,217.03373 39.890439,199.38319 -0.0856214,181.69611 -18.677599,133.49658 -0.99476084,93.531477 16.724271,53.484569 65.009653,34.859746 105.04571,52.574573 145.16281,70.32526 163.82018,118.6957 146.07367,158.80205 128.29162,198.98871 79.836896,217.67833 39.660885,199.90042 -0.59470455,182.0873 -19.31628,133.54906 -1.507265,93.304022 16.336649,52.980116 64.957657,34.226865 105.27111,52.066703 145.66273,69.941133 164.44738,118.64418 146.57699,159.02544 128.67232,199.48418 79.887956,218.29995 39.439481,200.39929 -1.0858056,182.46464 -19.932433,133.59967 -2.0017659,93.084557 15.962604,52.493295 64.907497,33.616075 105.48867,51.576489 146.14535,69.570321 165.0529,118.59445 147.063,159.24113 129.03996,199.96268 79.937249,218.90032 39.225618,200.88117 -1.5602599,182.82917 -20.52773,133.64854 -2.4795933,92.872492 15.601135,52.022812 64.859039,33.025753 105.69897,51.10264 146.61193,69.211853 165.63834,118.5464 147.53294,159.4497 129.39548,200.42543 79.984903,219.48096 39.018754,201.34728 -2.0192557,183.18179 -21.103657,133.6958 -2.9419314,92.667301 15.251353,51.56751 64.812161,32.454455 105.90252,50.644004 147.06361,68.864864 166.20509,118.4999 147.98794,159.65163 129.73972,200.87354 80.031033,220.04324 38.818408,201.7987 -2.4638552,183.52334 -21.661544,133.74157 -3.3898393,92.468515 14.912459,51.126357 64.766753,31.900887 106.09977,50.199551 147.50137,68.528578 166.75441,118.45485 148.429,159.84738 130.07344,201.30797 80.075742,220.58838 38.624146,202.23642 -2.895012,183.85454 -22.202583,133.78593 -3.8242684,92.27571 14.583738,50.698423 64.722719,31.363887 106.29114,49.768354 147.92613,68.202297 167.28744,118.41114 148.85701,160.03733 130.39732,201.72962 80.119123,221.1175 38.435576,202.6613 -3.3135856,184.17606 -22.727851,133.829 -4.2460764,92.088507 14.264544,50.282871 64.679971,30.842406 106.477,49.349577 148.33871,67.885391 167.80519,118.3687 149.27281,160.22187 130.71198,202.13927 80.161259,221.63158 38.252346,203.07416 -3.7203535,184.48849 -23.238322,133.87083 -4.6560399,91.906561 13.954293,49.878941 64.638429,30.335494 106.65768,48.942462 148.73985,67.57729 168.3086,118.32745 149.67712,160.40131 131.01796,202.53765 80.202225,222.13154 38.074135,203.4757 -4.1160214,184.79239 -23.734877,133.91152 -5.0548638,91.729559 13.652452,49.485946 64.598021,29.842288 106.83349,48.546321 149.13021,67.277475 168.7985,118.28731 150.07061,160.57594 131.31578,202.92542 80.242091,222.61819 37.900652,203.8666 -4.5012321,185.08824 -24.218324,133.95112 -5.4431905,91.557215 13.358539,49.103256 64.558681,29.362002 107.00471,48.160524 149.51041,66.985473 169.27568,118.24823 150.45392,160.74606 131.6059,203.30317 80.280919,223.09229 37.731631,204.24744 -4.8765724,185.3765 -24.689396,133.9897 -5.8216069,91.38927 13.072111,48.730297 64.52035,28.893916 107.1716,47.7845 149.88102,66.700852 169.74082,118.21014 150.82758,160.91189 131.88874,203.67146 80.318767,223.55452 37.566826,204.61878 -5.24258,185.65758 -25.148766,134.02731 -6.1906506,91.225484 12.792763,48.366544 64.482972,28.437372 107.33438,47.417721 150.24255,66.423214 170.19457,118.173 151.19213,161.07368 132.16469,204.0308 80.355688,224.00553 37.406016,204.98112 -5.5997487,185.93187 -25.597054,134.064 -6.5508157,91.065639 12.520122,48.011512 64.446497,27.991764 107.49327,47.059703 c 43.1022,19.092493 63.14426,71.077037 44.05475,114.171937 -19.11392,43.15 -71.156291,63.21424 -114.299028,44.10329 C -5.948533,186.1997 -26.034829,134.09983 -6.902557,90.909532 12.253846,47.664757 64.410879,27.556534 107.64847,46.71 150.94023,65.88746 171.07025,118.10133 151.89571,161.38594 132.69732,204.72441 80.426935,224.87612 37.095566,205.68063 -6.2893524,186.46142 -26.462616,134.13484 -7.2462945,90.756978 11.993617,47.325868 64.376074,27.131166 107.80017,46.368202 151.27721,65.628696 171.49323,118.06672 152.2356,161.53679 132.95463,205.05951 80.461348,225.29673 36.945562,206.01862 -6.6225947,186.7173 -26.880901,134.16906 -7.5824166,90.607803 11.739143,46.994462 64.342044,26.715185 107.94852,46.033926 151.6068,65.375618 171.90694,118.03288 152.56805,161.68433 133.20633,205.38731 80.495005,225.70819 36.798817,206.34927 -6.9486194,186.96764 -27.290135,134.20253 -7.9112834,90.461848 11.490152,46.670189 64.30875,26.308148 108.09369,45.70682 151.92934,65.127957 172.3118,117.99976 152.89341,161.82873 133.45268,205.70814 80.527943,226.11091 36.655179,206.67291 -7.2677604,187.21268 -27.690735,134.2353 -8.2332294,90.318965 11.246392,46.352719 64.27616,25.909644 108.23583,45.386555 152.24516,64.885468 172.70823,117.96735 153.21202,161.97013 133.69391,206.02233 80.560194,226.50529 36.514509,206.98987 -7.5803282,187.45268 -28.083092,134.26738 -8.5485658,90.179015 11.007628,46.041749 64.244241,25.519291 108.37507,45.072825 152.55455,64.647918 173.09661,117.93559 153.52416,162.10867 133.93026,206.33015 80.591788,226.89171 36.376674,207.30044 -7.8866124,187.68784 -28.467567,134.29881 -8.8575828,90.04187 10.77364,45.736993 64.212965,25.136732 108.51153,44.765345 152.8578,64.415092 173.47727,117.90447 153.83012,162.24445 134.16194,206.6319 80.622754,227.27049 36.241553,207.6049 -8.1868832,187.91838 -28.844499,134.32963 -9.1605513,89.907409 10.544226,45.438185 64.182302,24.761635 108.64534,44.463848 153.15516,64.18679 173.85055,117.87396 154.13016,162.37762 134.38914,206.92783 80.65312,227.64198 36.109031,207.9035 -8.4813933,188.14449 -29.214206,134.35985 -9.4577249,89.775521 10.319192,45.145078 64.152228,24.393687 108.7766,44.168085 153.44688,63.962824 174.21676,117.84402 154.42453,162.50826 134.61205,207.21818 80.682909,228.00646 35.979002,208.19648 -8.7703793,188.36635 -29.576984,134.3895 -9.7493408,89.646098 10.098361,44.857437 64.122718,24.032598 108.90542,43.877824 153.73318,63.743016 174.57617,117.81465 154.71345,162.63648 134.83084,207.50317 80.712145,228.36423 35.851364,208.48408 -9.0540634,188.58415 -29.933111,134.4186 -10.035622,89.519044 9.8815632,44.575046 64.09375,23.678092 109.0319,43.592843 154.0143,63.527202 174.92908,117.78582 154.99714,162.76239 135.04569,207.78301 80.740851,228.71554 35.726024,208.7665 -9.3326541,188.79802 -30.282848,134.44717 -10.316777,89.394264 9.6686414,44.297697 64.065301,23.329913 109.15613,43.312938 154.29041,63.315225 175.27571,117.75749 155.27581,162.88607 135.25673,208.05791 80.769046,229.06065 35.602893,209.04394 -9.6063474,189.00813 -30.626442,134.47524 -10.593004,89.271671 9.4594469,44.025199 64.037354,22.987818 109.27818,43.037914 154.56173,63.106941 175.61632,117.72967 155.54964,163.0076 135.46411,208.32805 80.796751,229.39978 35.481887,209.31659 -9.8753281,189.21463 -30.964124,134.50283 -10.864487,89.151184 9.2538397,43.757369 64.009887,22.65158 109.39816,42.767589 154.82842,62.902209 175.95113,117.70232 155.81882,163.12706 135.66797,208.59361 80.823984,229.73318 35.362927,209.58463 -10.13977,189.41763 -31.296112,134.52995 -11.131401,89.032725 9.0516877,43.494035 63.982884,22.320983 109.51612,42.501791 c 45.57453,20.19911 66.76423,75.173639 46.56739,120.742739 -20.21507,45.61023 -75.232749,66.8165 -120.83757,46.6037 C -10.399839,189.61727 -31.622613,134.55661 -11.393913,88.916219 8.8528662,43.235036 63.956328,21.995823 109.63215,42.240356 155.34859,62.502894 176.60418,117.64898 156.34388,163.36009 136.06565,209.11165 80.8771,230.38354 35.130855,210.10754 -10.655688,189.81367 -31.94382,134.58284 -11.652176,88.801599 8.6572572,42.980217 63.930202,21.675909 109.74631,41.98313 c 45.85608,20.32494 67.1765,75.63983 46.85376,121.49066 C 136.25969,209.36443 80.903016,230.7009 35.017605,210.36271 -10.907467,190.00695 -32.25992,134.60866 -11.90634,88.688798 8.4647494,42.729435 63.904493,21.361059 109.85866,41.729969 155.85219,62.116321 177.23642,117.59736 156.85224,163.5857 136.45069,209.61325 80.928523,231.01329 34.906128,210.6139 -11.155313,190.1972 -32.571086,134.63406 -12.156545,88.577755 8.2752369,42.482551 63.879185,21.0511 109.96928,41.480734 156.09812,61.927541 177.54518,117.57215 157.10052,163.69589 136.63874,209.85824 80.953635,231.32086 34.796364,210.86122 -11.399359,190.38453 -32.877484,134.65908 -12.402922,88.46841 8.0886195,42.239435 63.854265,20.745869 110.07821,41.235293 c 46.2621,20.50634 67.77105,76.312027 47.26682,122.569117 -20.52108,46.2951 -76.366664,67.81938 -122.656774,47.3004 C -11.63973,190.56904 -33.179271,134.68372 -12.645598,88.360708 7.9048021,41.999964 63.829721,20.445211 110.18551,40.993524 156.57889,61.558501 178.1488,117.52287 157.5859,163.91131 137.0064,210.33721 81.002727,231.92221 34.58175,211.34479 -11.876545,190.75082 -33.476597,134.70799 -12.884692,88.254595 7.7236942,41.76402 63.805539,20.148978 110.29123,40.755306 156.81397,61.378057 178.44394,117.49878 157.82324,164.01665 137.18618,210.57143 81.026731,232.21629 34.476797,211.58127 -12.109918,190.92995 -33.769603,134.7319 -13.120319,88.150021 7.5452099,41.53149 63.78171,19.857031 110.39543,40.520529 157.04566,61.200215 178.73484,117.47503 158.05718,164.12047 137.36339,210.80229 81.050389,232.50614 34.373345,211.81437 -12.339956,191.10652 -34.058425,134.75548 -13.352587,88.046938 7.3692673,41.30227 63.758221,19.569235 110.49814,40.289086 157.27407,61.024896 179.02162,117.45163 158.28781,164.22282 137.53809,211.0299 81.073712,232.79191 34.271351,212.04418 -12.566762,191.28061 -34.343191,134.77872 -13.581598,87.945301 7.1957886,41.076256 63.735062,19.285464 110.59943,40.060873 157.4993,60.852021 179.3044,117.42855 158.51523,164.32376 137.71036,211.25434 81.09671,233.07372 34.170768,212.27082 -12.790434,191.45229 -34.624023,134.80164 -13.807451,87.845064 7.0246992,40.853353 63.712223,19.005595 110.69932,39.835794 157.72144,60.681518 179.58331,117.40579 158.73954,164.42331 137.88028,211.47573 81.119392,233.35168 34.071556,212.49436 -13.011065,191.62163 -34.90104,134.82424 -14.03024,87.746188 6.8559283,40.633468 63.689694,18.729515 110.79786,39.613757 157.94058,60.513316 179.85847,117.38334 158.96083,164.52152 138.04792,211.69414 81.141769,233.62591 33.973673,212.71491 -13.228744,191.78871 -35.174353,134.84654 -14.250055,87.648632 6.6894083,40.416514 63.667467,18.457111 110.89509,39.394672 158.15682,60.347349 180.12997,117.36118 159.17919,164.61843 138.21334,211.90966 81.163848,233.89651 33.877082,212.93255 -13.443556,191.95358 -35.444069,134.86855 -14.466981,87.552358 6.5250742,40.202405 63.645533,18.188279 110.99105,39.178455 158.37023,60.183551 180.39792,117.33932 159.3947,164.71408 138.3766,212.12237 81.185639,234.1636 33.781745,213.14737 -13.655584,192.11632 -35.710289,134.89027 -14.6811,87.457329 6.3628643,39.991062 63.623884,17.922917 111.08578,38.965026 158.58089,60.021863 180.66243,117.31774 159.60744,164.80849 138.53778,212.33236 81.20715,234.42726 33.687628,213.35943 -13.864903,192.27697 -35.973112,134.91171 -14.892491,87.363512 6.2027194,39.782407 63.60251,17.660929 111.1793,38.754306 158.78888,59.862225 180.92359,117.29644 159.8175,164.90172 138.69691,212.5397 81.228387,234.68759 33.594697,213.56883 -14.071591,192.43561 -36.23263,134.93288 -15.101228,87.270872 6.0445826,39.576367 63.581406,17.402222 111.27165,38.546221 158.99428,59.704582 181.18149,117.2754 160.02494,164.99378 138.85406,212.74446 81.24936,234.94469 33.50292,213.77562 -14.275716,192.59227 -36.488935,134.95379 -15.307383,87.179378 5.8883997,39.372871 63.560563,17.146708 111.36286,38.3407 c 47.83429,21.208179 70.07336,78.91392 48.86697,126.74401 -21.22054,47.862 -78.959755,70.11393 -126.817565,48.89518 C -14.47735,192.74703 -36.742111,134.97444 -15.511025,87.088999 5.7341185,39.17185 63.539975,16.894301 111.45296,38.137675 c 47.9446,21.257391 70.2349,79.096415 48.97928,127.036875 -21.2696,47.97197 -79.141702,70.27498 -127.109537,49.00714 C -14.676556,192.89991 -36.992241,134.99484 -15.712221,86.999707 5.581689,38.973241 63.519635,16.64492 111.54199,37.937081 159.59558,59.243092 181.9365,117.21381 160.63223,165.26331 139.31416,213.34394 81.310757,235.69743 33.234206,214.38109 -14.873398,193.05099 -37.239404,135.015 -15.911034,86.911471 5.4310633,38.77698 63.499536,16.398486 111.62996,37.738854 159.79126,59.09291 182.18221,117.19377 160.82988,165.35102 139.4639,213.53905 81.330737,235.94241 33.146746,214.57816 -15.067937,193.20029 -37.483676,135.03492 -16.107525,86.824266 5.2821952,38.583008 63.479672,16.154925 111.71692,37.542935 159.98467,58.944474 182.42506,117.17397 161.02523,165.43772 139.61191,213.7319 81.350486,236.18457 33.060297,214.77294 -15.26023,193.34787 -37.725131,135.05461 -16.301752,86.738066 5.1350404,38.391267 63.460038,15.914164 111.80287,37.349264 160.17587,58.797741 182.66514,117.15439 161.21835,165.52343 139.75822,213.92255 81.370007,236.42395 32.974834,214.96551 -15.450335,193.49377 -37.963838,135.07408 -16.493772,86.652846 4.9895563,38.201701 63.440627,15.676133 111.88785,37.157788 160.3649,58.652668 182.9025,117.13504 161.40928,165.60817 139.90288,214.11105 81.389309,236.66064 32.890332,215.15591 -15.638304,193.63802 -38.199865,135.09333 -16.683639,86.568581 4.845702,38.014258 63.421435,15.440765 111.97188,36.968451 160.55182,58.509215 183.13721,117.1159 161.59809,165.69197 140.04594,214.29745 81.408394,236.8947 32.806769,215.3442 -15.82419,193.78068 -38.433277,135.11236 -16.871405,86.485248 4.7034379,37.828885 63.402455,15.207997 112.05498,36.781202 160.73668,58.367342 183.36934,117.09697 161.78483,165.77484 140.18742,214.48181 81.42727,237.1262 32.724121,215.53042 -16.008042,193.92178 -38.664137,135.13118 -17.057121,86.402825 4.562726,37.645533 63.383682,14.977766 112.13718,36.595991 160.91953,58.227013 183.59894,117.07825 161.96954,165.85682 140.32737,214.66416 81.44594,237.35518 32.642366,215.71463 -16.189909,194.06135 -38.892506,135.1498 -17.240834,86.321291 4.4235298,37.464155 63.365113,14.750011 112.21849,36.412771 161.10043,58.08819 183.82609,117.05973 162.15227,165.93791 140.46582,214.84457 81.46441,237.58172 32.561485,215.89687 -16.369837,194.19943 -39.11844,135.16822 -17.422592,86.240625 4.2858139,37.284705 63.346741,14.524677 112.29895,36.231495 161.2794,57.950839 184.05082,117.04141 162.33306,166.01815 140.60281,215.02308 81.482684,237.80587 32.481457,216.07719 -16.547871,194.33606 -39.341996,135.18645 -17.60244,86.160807 4.1495442,37.107138 63.328563,14.301706 112.37856,36.052118 161.4565,57.814925 184.27321,117.02327 162.51197,166.09756 140.73837,215.19972 81.500767,238.02768 32.402261,216.25564 -16.724053,194.47127 -39.56323,135.20449 -17.780421,86.081817 4.0146879,36.931412 63.310574,14.081045 112.45734,35.874597 161.63178,57.680417 184.4933,117.00533 162.68904,166.17614 140.87253,215.37454 81.518664,238.2472 32.323881,216.43225 -16.898426,194.60508 -39.782191,135.22234 -17.956576,86.003637 3.8812133,36.757485 63.29277,13.862643 112.53532,35.698892 161.80526,57.547283 184.71115,116.98757 162.86429,166.25392 141.00533,215.54758 81.536377,238.46449 32.246297,216.60706 -17.07103,194.73754 -39.998932,135.24 -18.130947,85.926249 3.7490898,36.585317 63.275146,13.64645 112.61251,35.524961 161.97699,57.415493 184.9268,116.96999 163.03779,166.33092 141.13679,215.71888 81.553912,238.6796 32.169492,216.78012 -17.241903,194.86867 -40.213501,135.25749 -18.303573,85.849636 3.6182877,36.414871 63.257699,13.432417 112.68894,35.352765 162.14702,57.285017 185.1403,116.95259 163.20956,166.40715 141.26694,215.88848 81.571272,238.89257 32.093448,216.95146 -17.411083,194.9985 -40.425945,135.27481 -18.474491,85.773781 3.4887784,36.246108 63.240425,13.220497 112.76461,35.182268 162.31536,57.155826 185.3517,116.93536 163.37963,166.48263 141.39581,216.05642 81.588461,239.10345 32.018151,217.12112 -17.578607,195.12706 -40.63631,135.29196 -18.643738,85.698667 3.3605343,36.078993 63.22332,13.010645 112.83954,35.013434 162.48207,57.027894 185.56104,116.9183 163.54806,166.55738 141.52343,216.22272 81.605482,239.31228 31.943583,217.28914 -17.744509,195.25437 -40.84464,135.30894 -18.811349,85.62428 3.2335286,35.913491 63.206381,12.802818 112.91374,34.846226 162.64718,56.901194 185.76837,116.9014 163.71486,166.63141 141.64983,216.38743 81.62234,239.51912 31.86973,217.45554 -17.908824,195.38047 -41.050976,135.32576 -18.977359,85.550603 3.1077354,35.749568 63.189604,12.596973 112.98725,34.680611 162.81071,56.7757 185.97372,116.88466 163.88009,166.70474 141.77503,216.55058 81.639037,239.72398 31.796576,217.62037 -18.071584,195.50537 -41.255361,135.34241 -19.141801,85.477622 2.9831296,35.587191 63.172986,12.393069 113.06006,34.516556 162.9727,56.651387 186.17715,116.86808 164.04376,166.77738 141.89905,216.71219 81.655578,239.92693 31.724108,217.78366 -18.232822,195.6291 -41.457835,135.35891 -19.304706,85.405322 2.859687,35.426329 63.156523,12.191067 113.13219,34.35403 c 50.001,22.174202 73.24649,82.49763 51.07372,132.49531 C 142.02192,216.87231 81.671964,240.128 31.652311,217.94544 -18.392568,195.75168 -41.658437,135.37526 -19.466107,85.333691 2.7373841,35.266952 63.140212,11.990928 113.20365,34.193001 163.2922,56.40621 186.57836,116.83538 164.36656,166.92064 142.14366,217.03095 81.688199,240.32722 31.581172,218.10573 -18.550851,195.87315 -41.857203,135.39146 -19.626032,85.262714 2.6161979,35.109029 63.124051,11.792615 113.27447,34.03344 163.44977,56.2853 186.77622,116.81926 164.52576,166.9913 142.2643,217.18816 81.704287,240.52463 31.510677,218.26456 -18.707702,195.99351 -42.05417,135.40751 -19.784512,85.192379 2.4961065,34.952532 63.108036,11.596092 113.34464,33.875317 163.60591,56.165479 186.9723,116.80328 164.68353,167.06132 142.38385,217.34396 81.72023,240.72028 31.440815,218.42198 -18.863148,196.1128 -42.249374,135.42342 -19.941574,85.122674 2.3770885,34.797433 63.092165,11.401323 113.41419,33.718605 163.76067,56.046726 187.16664,116.78745 164.83989,167.13071 142.50234,217.49837 81.736031,240.91418 31.371573,218.578 -19.017216,196.23102 -42.442848,135.43919 -20.097246,85.053584 2.2591229,34.643705 63.076434,11.208276 113.48313,33.563276 163.91405,55.92902 187.35926,116.77175 164.99488,167.1995 142.61978,217.65142 81.751692,241.10638 31.302939,218.73264 -19.169934,196.34821 -42.634627,135.45481 -20.251555,84.9851 2.1421897,34.491321 63.060841,11.016916 113.55147,33.409304 164.06611,55.812342 187.5502,116.75619 165.14852,167.26768 142.73621,217.80314 81.767217,241.29691 31.234901,218.88595 -19.321326,196.46438 -42.824741,135.4703 -20.404527,84.91721 2.0262692,34.340257 63.045383,10.827213 113.61921,33.256663 164.21684,55.696671 187.7395,116.74077 165.30083,167.33528 142.85163,217.95355 81.782608,241.48579 31.167449,219.03793 -19.471417,196.57956 -43.013223,135.48566 -20.556186,84.849902 1.9113424,34.190487 63.030059,10.639134 113.68637,33.105328 c 50.67992,22.476662 74.2408,83.620142 51.76547,134.296972 -0.31389,0.70776 -0.63586,1.41193 -0.96581,2.11235"
       transform="matrix(0.58846434,-0.27440543,0.27458737,0.5888545,36.705821,74.848494)" />
  </g>
</svg>
